<svg id="Group_42" data-name="Group 42" xmlns="http://www.w3.org/2000/svg" xmlns:xlink="http://www.w3.org/1999/xlink" width="412.453" height="63.265" viewBox="0 0 412.453 63.265">
  <defs>
    <linearGradient id="linear-gradient" x1="0.5" x2="0.5" y2="1" gradientUnits="objectBoundingBox">
      <stop offset="0" stop-color="#fc6d69"/>
      <stop offset="1" stop-color="#faaca1"/>
    </linearGradient>
  </defs>
  <path id="Icon_feather-star" data-name="Icon feather-star" d="M36.262,3,46.54,23.822l22.984,3.359-16.631,16.2,3.925,22.885L36.262,55.455,15.706,66.265l3.925-22.885L3,27.182l22.984-3.359Z" transform="translate(-3 -3)" fill="url(#linear-gradient)"/>
  <path id="Icon_feather-star-2" data-name="Icon feather-star" d="M36.262,3,46.54,23.822l22.984,3.359-16.631,16.2,3.925,22.885L36.262,55.455,15.706,66.265l3.925-22.885L3,27.182l22.984-3.359Z" transform="translate(83.482 -3)" fill="url(#linear-gradient)"/>
  <path id="Icon_feather-star-3" data-name="Icon feather-star" d="M36.262,3,46.54,23.822l22.984,3.359-16.631,16.2,3.925,22.885L36.262,55.455,15.706,66.265l3.925-22.885L3,27.182l22.984-3.359Z" transform="translate(169.964 -3)" fill="url(#linear-gradient)"/>
  <path id="Icon_feather-star-4" data-name="Icon feather-star" d="M36.262,3,46.54,23.822l22.984,3.359-16.631,16.2,3.925,22.885L36.262,55.455,15.706,66.265l3.925-22.885L3,27.182l22.984-3.359Z" transform="translate(256.446 -3)" fill="url(#linear-gradient)"/>
  <path id="Icon_feather-star-5" data-name="Icon feather-star" d="M36.262,3,46.54,23.822l22.984,3.359-16.631,16.2,3.925,22.885L36.262,55.455,15.706,66.265l3.925-22.885L3,27.182l22.984-3.359Z" transform="translate(342.928 -3)" fill="url(#linear-gradient)"/>
</svg>
